<svg width="430" height="474" viewBox="0 0 430 474" fill="none" xmlns="http://www.w3.org/2000/svg">
<path d="M176.167 40.524C204.028 40.524 227.602 65.1474 227.602 96.7886C227.602 128.43 204.028 153.054 176.167 153.054C148.305 153.054 124.731 128.43 124.731 96.7886C124.731 65.1475 148.305 40.5241 176.167 40.524Z" stroke="#1A1A1A" stroke-width="15"/>
<path d="M183.4 24.5828V41.4656H168.933V24.5828H183.4Z" stroke="#1A1A1A" stroke-width="15"/>
<path d="M242.336 105.231L235.236 105.231L235.236 88.3478L242.336 88.3478L242.336 105.231Z" stroke="#1A1A1A" stroke-width="15"/>
<path d="M117.098 105.231L109.997 105.231L109.997 88.3478L117.098 88.3478L117.098 105.231Z" stroke="#1A1A1A" stroke-width="15"/>
<path d="M228.496 51.701L221.407 59.371L210.751 47.8419L217.84 40.172L228.496 51.701Z" stroke="#1A1A1A" stroke-width="15"/>
<path d="M142.283 144.977L134.493 153.406L123.837 141.877L131.627 133.448L142.283 144.977Z" stroke="#1A1A1A" stroke-width="15"/>
<path d="M183.4 152.113V168.996H168.933V152.113H183.4Z" stroke="#1A1A1A" stroke-width="15"/>
<path d="M134.493 40.1713L141.843 48.1239L131.187 59.6529L123.837 51.7003L134.493 40.1713Z" stroke="#1A1A1A" stroke-width="15"/>
<path d="M220.263 132.97L228.495 141.877L217.84 153.406L209.607 144.499L220.263 132.97Z" stroke="#1A1A1A" stroke-width="15"/>
<path d="M314.268 47.224C340.45 37.6947 371.023 52.7705 381.845 82.5035C392.667 112.237 378.938 143.439 352.756 152.968C326.574 162.497 296 147.421 285.178 117.688C274.357 87.9545 288.087 56.7535 314.268 47.224Z" stroke="#1A1A1A" stroke-width="15"/>
<path d="M315.614 29.7701L321.388 45.6347L307.793 50.583L302.018 34.7183L315.614 29.7701Z" stroke="#1A1A1A" stroke-width="15"/>
<path d="M398.579 85.3969L391.906 87.8255L386.132 71.9608L392.804 69.5323L398.579 85.3969Z" stroke="#1A1A1A" stroke-width="15"/>
<path d="M280.893 128.231L274.221 130.66L268.446 114.795L275.119 112.366L280.893 128.231Z" stroke="#1A1A1A" stroke-width="15"/>
<path d="M367.265 39.8291L363.227 49.4612L349.27 42.272L353.308 32.6399L367.265 39.8291Z" stroke="#1A1A1A" stroke-width="15"/>
<path d="M318.154 156.967L313.716 167.552L299.759 160.363L304.197 149.778L318.154 156.967Z" stroke="#1A1A1A" stroke-width="15"/>
<path d="M359.231 149.609L365.006 165.474L351.41 170.422L345.636 154.557L359.231 149.609Z" stroke="#1A1A1A" stroke-width="15"/>
<path d="M274.987 61.1459L284.614 66.105L278.544 80.5832L268.917 75.6242L274.987 61.1459Z" stroke="#1A1A1A" stroke-width="15"/>
<path d="M387.324 119.013L398.106 124.567L392.036 139.045L381.254 133.491L387.324 119.013Z" stroke="#1A1A1A" stroke-width="15"/>
<path d="M77.2442 181.751C103.426 172.222 133.999 187.298 144.821 217.031C155.643 246.764 141.913 277.966 115.732 287.495C89.5502 297.024 58.9762 281.948 48.1542 252.215C37.3325 222.482 51.0627 191.281 77.2442 181.751Z" stroke="#1A1A1A" stroke-width="15"/>
<path d="M78.5895 164.297L84.3637 180.162L70.7685 185.11L64.9942 169.246L78.5895 164.297Z" stroke="#1A1A1A" stroke-width="15"/>
<path d="M161.554 219.924L154.882 222.353L149.108 206.488L155.78 204.06L161.554 219.924Z" stroke="#1A1A1A" stroke-width="15"/>
<path d="M43.8689 262.758L37.1965 265.187L31.4222 249.322L38.0946 246.894L43.8689 262.758Z" stroke="#1A1A1A" stroke-width="15"/>
<path d="M130.241 174.356L126.202 183.988L112.246 176.799L116.284 167.167L130.241 174.356Z" stroke="#1A1A1A" stroke-width="15"/>
<path d="M81.1294 291.494L76.6917 302.079L62.7353 294.89L67.173 284.305L81.1294 291.494Z" stroke="#1A1A1A" stroke-width="15"/>
<path d="M122.207 284.136L127.982 300.001L114.386 304.949L108.612 289.085L122.207 284.136Z" stroke="#1A1A1A" stroke-width="15"/>
<path d="M37.9628 195.673L47.5897 200.632L41.5196 215.11L31.8927 210.151L37.9628 195.673Z" stroke="#1A1A1A" stroke-width="15"/>
<path d="M150.3 253.54L161.082 259.094L155.012 273.573L144.229 268.018L150.3 253.54Z" stroke="#1A1A1A" stroke-width="15"/>
<path d="M247.701 183.593C275.563 183.593 299.136 208.216 299.136 239.857C299.136 271.499 275.563 296.123 247.701 296.123C219.839 296.123 196.265 271.499 196.265 239.857C196.265 208.216 219.839 183.593 247.701 183.593Z" stroke="#1A1A1A" stroke-width="15"/>
<path d="M254.935 167.651V184.534H240.467V167.651H254.935Z" stroke="#1A1A1A" stroke-width="15"/>
<path d="M313.871 248.299L306.77 248.299L306.77 231.416L313.871 231.416L313.871 248.299Z" stroke="#1A1A1A" stroke-width="15"/>
<path d="M188.632 248.299L181.532 248.299L181.532 231.416L188.632 231.416L188.632 248.299Z" stroke="#1A1A1A" stroke-width="15"/>
<path d="M300.03 194.77L292.941 202.44L282.286 190.911L289.375 183.241L300.03 194.77Z" stroke="#1A1A1A" stroke-width="15"/>
<path d="M213.817 288.046L206.027 296.475L195.371 284.946L203.162 276.517L213.817 288.046Z" stroke="#1A1A1A" stroke-width="15"/>
<path d="M254.935 295.181V312.064H240.467V295.181H254.935Z" stroke="#1A1A1A" stroke-width="15"/>
<path d="M206.027 183.24L213.377 191.192L202.721 202.721L195.371 194.769L206.027 183.24Z" stroke="#1A1A1A" stroke-width="15"/>
<path d="M291.797 276.039L300.03 284.946L289.374 296.475L281.141 287.568L291.797 276.039Z" stroke="#1A1A1A" stroke-width="15"/>
<path d="M113.795 408.364C107.659 408.364 102.375 406.915 97.9432 404.017C93.5114 401.119 90.1023 397.128 87.7159 392.043C85.3295 386.957 84.1364 381.148 84.1364 374.614C84.1364 367.966 85.358 362.099 87.8011 357.014C90.2727 351.901 93.7102 347.909 98.1136 345.04C102.545 342.142 107.716 340.693 113.625 340.693C118.227 340.693 122.375 341.545 126.068 343.25C129.761 344.955 132.787 347.341 135.145 350.409C137.503 353.477 138.966 357.057 139.534 361.148H129.477C128.71 358.165 127.006 355.523 124.364 353.222C121.75 350.892 118.227 349.727 113.795 349.727C109.875 349.727 106.438 350.75 103.483 352.795C100.557 354.812 98.2699 357.668 96.6222 361.361C95.0028 365.026 94.1932 369.33 94.1932 374.273C94.1932 379.33 94.9886 383.733 96.5795 387.483C98.1989 391.233 100.472 394.145 103.398 396.219C106.352 398.293 109.818 399.33 113.795 399.33C116.409 399.33 118.781 398.875 120.912 397.966C123.043 397.057 124.847 395.75 126.324 394.045C127.801 392.341 128.852 390.295 129.477 387.909H139.534C138.966 391.773 137.56 395.253 135.315 398.349C133.099 401.418 130.159 403.861 126.494 405.679C122.858 407.469 118.625 408.364 113.795 408.364Z" fill="black"/>
<path d="M234.205 407V341.545H243.92V351.432H244.602C245.795 348.193 247.955 345.565 251.08 343.548C254.205 341.531 257.727 340.523 261.648 340.523C262.386 340.523 263.31 340.537 264.418 340.565C265.526 340.594 266.364 340.636 266.932 340.693V350.92C266.591 350.835 265.81 350.707 264.588 350.537C263.395 350.338 262.131 350.239 260.795 350.239C257.614 350.239 254.773 350.906 252.273 352.241C249.801 353.548 247.841 355.366 246.392 357.696C244.972 359.997 244.261 362.625 244.261 365.58V407H234.205ZM304.304 408.364C297.997 408.364 292.557 406.972 287.983 404.188C283.438 401.375 279.929 397.455 277.457 392.426C275.014 387.369 273.793 381.489 273.793 374.784C273.793 368.08 275.014 362.17 277.457 357.057C279.929 351.915 283.366 347.909 287.77 345.04C292.202 342.142 297.372 340.693 303.281 340.693C306.69 340.693 310.057 341.261 313.381 342.398C316.705 343.534 319.73 345.381 322.457 347.938C325.185 350.466 327.358 353.818 328.977 357.994C330.597 362.17 331.406 367.312 331.406 373.42V377.682H280.952V368.989H321.179C321.179 365.295 320.44 362 318.963 359.102C317.514 356.205 315.44 353.918 312.741 352.241C310.071 350.565 306.918 349.727 303.281 349.727C299.276 349.727 295.81 350.722 292.884 352.71C289.986 354.67 287.756 357.227 286.193 360.381C284.631 363.534 283.849 366.915 283.849 370.523V376.318C283.849 381.261 284.702 385.452 286.406 388.889C288.139 392.298 290.54 394.898 293.608 396.688C296.676 398.449 300.241 399.33 304.304 399.33C306.946 399.33 309.332 398.96 311.463 398.222C313.622 397.455 315.483 396.318 317.045 394.812C318.608 393.278 319.815 391.375 320.668 389.102L330.384 391.83C329.361 395.125 327.642 398.023 325.227 400.523C322.813 402.994 319.83 404.926 316.278 406.318C312.727 407.682 308.736 408.364 304.304 408.364Z" fill="black"/>
<path d="M211 376.5C211 391.688 198.688 404 183.5 404C174.861 404 167.153 400.017 162.111 393.786M156 376.5C156 361.312 168.312 349 183.5 349C192.139 349 199.847 352.983 204.889 359.214" stroke="black" stroke-width="8" stroke-linecap="round"/>
<path d="M207.944 349V361.222H195.722" stroke="black" stroke-width="8" stroke-linecap="round" stroke-linejoin="round"/>
<path d="M159.056 404V391.778H171.278" stroke="black" stroke-width="8" stroke-linecap="round" stroke-linejoin="round"/>
</svg>
